<?xml version="1.0" encoding="utf-8"?>
<svg version="1.1" width="500" height="500" viewBox="0 0 500 500" xmlns="http://www.w3.org/2000/svg">
  <desc>Created with Fabric.js 5.3.0</desc>
  <g transform="matrix(2.1830284158 0 0 2.1830284158 240.6831214142 121.8116034441)" id="f3_d-PcobPGGwu5f1QFeh">
    <path style="stroke: rgb(102,252,241); stroke-width: 4; stroke-dasharray: none; stroke-linecap: round; stroke-dashoffset: 0; stroke-linejoin: round; stroke-miterlimit: 10; fill: none; fill-rule: nonzero; opacity: 1;" transform=" translate(-222.443689562, -166.0804991961)" d="M 201.44106160936488 193.0478494196765 Q 201.44506160936487 193.04384941967652 201.519577257651 193.04384941967652 Q 201.59409290593715 193.04384941967652 201.74312420250942 192.96933377139038 Q 201.8921554990817 192.89481812310424 202.04118679565397 192.8203024748181 Q 202.19021809222625 192.74578682653197 202.41376503708466 192.67127117824583 Q 202.6373119819431 192.5967555299597 202.71182763022927 192.5967555299597 Q 202.7863432785154 192.5967555299597 202.86085892680154 192.5967555299597 Q 202.93537457508768 192.5967555299597 203.1589215199461 192.52223988167356 Q 203.3824684648045 192.44772423338742 203.45698411309064 192.37320858510128 Q 203.53149976137678 192.29869293681514 203.7550467062352 192.224177288529 Q 203.9785936510936 192.14966164024287 204.20214059595205 192.14966164024287 Q 204.4256875408105 192.14966164024287 204.50020318909662 192.14966164024287 Q 204.57471883738276 192.14966164024287 204.72375013395504 192.07514599195673 Q 204.8727814305273 192.0006303436706 205.0218127270996 192.0006303436706 Q 205.17084402367186 192.0006303436706 205.39439096853027 191.92611469538446 Q 205.6179379133887 191.8515990470983 205.69245356167482 191.8515990470983 Q 205.766969209961 191.8515990470983 205.99051615481943 191.77708339881215 Q 206.21406309967784 191.70256775052601 206.28857874796398 191.70256775052601 Q 206.36309439625012 191.70256775052601 206.58664134110853 191.62805210223988 Q 206.81018828596694 191.55353645395374 206.88470393425308 191.55353645395374 Q 206.95921958253922 191.55353645395374 207.03373523082536 191.55353645395374 Q 207.1082508791115 191.55353645395374 207.18276652739763 191.55353645395374 Q 207.25728217568377 191.55353645395374 207.40631347225604 191.47902080566757 Q 207.55534476882835 191.40450515738144 207.6298604171145 191.40450515738144 Q 207.70437606540062 191.40450515738144 207.7788917136868 191.40450515738144 Q 207.85340736197293 191.40450515738144 208.0024386585452 191.40450515738144 Q 208.15146995511748 191.40450515738144 208.30050125168975 191.3299895090953 Q 208.44953254826203 191.25547386080916 208.5985638448343 191.25547386080916 Q 208.74759514140658 191.25547386080916 208.82211078969272 191.25547386080916 Q 208.89662643797885 191.25547386080916 208.971142086265 191.25547386080916 Q 209.04565773455116 191.25547386080916 209.19468903112343 191.25547386080916 Q 209.3437203276957 191.25547386080916 209.492751624268 191.18095821252302 Q 209.64178292084028 191.1064425642369 209.71629856912642 191.1064425642369 Q 209.79081421741256 191.1064425642369 210.01436116227097 191.1064425642369 Q 210.23790810712939 191.1064425642369 210.31242375541552 191.03192691595075 Q 210.38693940370166 190.9574112676646 210.4614550519878 190.9574112676646 Q 210.53597070027394 190.9574112676646 210.61048634856007 190.9574112676646 Q 210.68500199684624 190.9574112676646 210.75951764513238 190.9574112676646 Q 210.8340332934185 190.9574112676646 210.98306458999082 190.88289561937847 Q 211.1320958865631 190.80837997109234 211.3556428314215 190.80837997109234 Q 211.57918977627992 190.80837997109234 211.65370542456606 190.80837997109234 Q 211.7282210728522 190.80837997109234 211.87725236942447 190.7338643228062 Q 212.02628366599674 190.65934867452006 212.24983061085516 190.65934867452006 Q 212.4733775557136 190.65934867452006 212.54789320399973 190.65934867452006 Q 212.62240885228587 190.65934867452006 212.77144014885818 190.58483302623392 Q 212.92047144543045 190.51031737794779 213.06950274200273 190.51031737794779 Q 213.218534038575 190.51031737794779 213.218534038575 190.43580172966165 Q 213.218534038575 190.3612860813755 213.29304968686114 190.3612860813755 Q 213.36756533514728 190.3612860813755 213.4420809834334 190.3612860813755 Q 213.51659663171955 190.3612860813755 213.5911122800057 190.3612860813755 Q 213.66562792829183 190.3612860813755 213.74014357657796 190.3612860813755 Q 213.8146592248641 190.3612860813755 213.96369052143638 190.28677043308937 Q 214.11272181800868 190.2122547848032 214.18723746629482 190.2122547848032 Q 214.26175311458096 190.2122547848032 214.41078441115326 190.13773913651707 Q 214.55981570772553 190.06322348823093 214.63433135601167 190.06322348823093 Q 214.7088470042978 190.06322348823093 214.78336265258395 190.06322348823093 Q 214.85787830087008 190.06322348823093 214.93239394915622 190.06322348823093 Q 215.00690959744236 190.06322348823093 215.0814252457285 189.9887078399448 Q 215.15594089401463 189.91419219165866 215.23045654230077 189.91419219165866 Q 215.3049721905869 189.91419219165866 215.37948783887305 189.91419219165866 Q 215.45400348715918 189.91419219165866 215.60303478373146 189.8396765433725 Q 215.75206608030376 189.76516089508635 215.90109737687607 189.76516089508635 Q 216.05012867344834 189.76516089508635 216.19915997002062 189.69064524680022 Q 216.3481912665929 189.61612959851408 216.42270691487903 189.61612959851408 Q 216.49722256316517 189.61612959851408 216.5717382114513 189.61612959851408 Q 216.64625385973744 189.61612959851408 216.79528515630972 189.61612959851408 Q 216.944316452882 189.61612959851408 217.01883210116813 189.54161395022794 Q 217.09334774945427 189.4670983019418 217.24237904602654 189.4670983019418 Q 217.39141034259885 189.4670983019418 217.54044163917115 189.39258265365567 Q 217.68947293574342 189.31806700536953 217.8385042323157 189.31806700536953 Q 217.98753552888797 189.31806700536953 218.0620511771741 189.31806700536953 Q 218.13656682546025 189.31806700536953 218.28559812203252 189.31806700536953 Q 218.4346294186048 189.31806700536953 218.50914506689094 189.31806700536953 Q 218.58366071517707 189.31806700536953 218.73269201174935 189.2435513570834 Q 218.88172330832163 189.16903570879725 219.0307546048939 189.16903570879725 Q 219.1797859014662 189.16903570879725 219.25430154975237 189.16903570879725 Q 219.3288171980385 189.16903570879725 219.55236414289692 189.16903570879725 Q 219.77591108775533 189.16903570879725 219.99945803261375 189.16903570879725 Q 220.22300497747216 189.16903570879725 220.37203627404443 189.09452006051112 Q 220.5210675706167 189.02000441222498 220.59558321890285 189.02000441222498 Q 220.670098867189 189.02000441222498 220.8191301637613 189.02000441222498 Q 220.96816146033356 189.02000441222498 221.04267710861973 189.02000441222498 Q 221.11719275690587 189.02000441222498 221.26622405347814 189.02000441222498 Q 221.41525535005042 189.02000441222498 221.63880229490883 188.94548876393884 Q 221.86234923976724 188.8709731156527 221.93686488805338 188.8709731156527 Q 222.01138053633952 188.8709731156527 222.1604118329118 188.8709731156527 Q 222.3094431294841 188.8709731156527 222.45847442605637 188.8709731156527 Q 222.60750572262864 188.8709731156527 222.6820213709148 188.8709731156527 Q 222.75653701920095 188.8709731156527 222.90556831577322 188.8709731156527 Q 223.0545996123455 188.8709731156527 223.2781465572039 188.8709731156527 Q 223.50169350206232 188.8709731156527 223.57620915034846 188.8709731156527 Q 223.6507247986346 188.8709731156527 223.79975609520687 188.8709731156527 Q 223.94878739177918 188.8709731156527 224.09781868835145 188.79645746736657 Q 224.24684998492373 188.72194181908043 224.3213656332099 188.72194181908043 Q 224.39588128149603 188.72194181908043 224.5449125780683 188.72194181908043 Q 224.69394387464058 188.72194181908043 224.917490819499 188.72194181908043 Q 225.1410377643574 188.72194181908043 225.21555341264354 188.72194181908043 Q 225.29006906092968 188.72194181908043 225.5136160057881 188.72194181908043 Q 225.73716295064654 188.72194181908043 225.88619424721884 188.72194181908043 Q 226.0352255437911 188.72194181908043 226.1842568403634 188.72194181908043 Q 226.33328813693566 188.72194181908043 226.55683508179408 188.72194181908043 Q 226.7803820266525 188.72194181908043 227.0039289715109 188.72194181908043 Q 227.22747591636934 188.72194181908043 227.30199156465548 188.72194181908043 Q 227.37650721294162 188.72194181908043 227.6745698060862 188.72194181908043 Q 227.97263239923075 188.72194181908043 228.34521064066143 188.79645746736657 Q 228.71778888209212 188.8709731156527 228.8668201786644 188.8709731156527 Q 229.0158514752367 188.8709731156527 229.31391406838128 188.8709731156527 Q 229.61197666152583 188.8709731156527 229.83552360638424 188.8709731156527 Q 230.05907055124266 188.8709731156527 230.1335861995288 188.8709731156527 Q 230.20810184781493 188.8709731156527 230.3571331443872 188.8709731156527 Q 230.50616444095948 188.8709731156527 230.72971138581792 188.94548876393884 Q 230.95325833067636 189.02000441222498 231.0277739789625 189.02000441222498 Q 231.10228962724864 189.02000441222498 231.32583657210705 189.02000441222498 Q 231.54938351696546 189.02000441222498 231.69841481353774 189.02000441222498 Q 231.84744611011 189.02000441222498 231.92196175839615 189.02000441222498 Q 231.9964774066823 189.02000441222498 232.07099305496843 189.02000441222498 Q 232.14550870325456 189.02000441222498 232.29453999982684 189.09452006051112 Q 232.44357129639914 189.16903570879725 232.51808694468528 189.16903570879725 Q 232.59260259297142 189.16903570879725 232.81614953782986 189.16903570879725 Q 233.03969648268827 189.16903570879725 233.26324342754668 189.2435513570834 Q 233.4867903724051 189.31806700536953 233.63582166897737 189.31806700536953 Q 233.78485296554965 189.31806700536953 233.93388426212192 189.31806700536953 Q 234.08291555869422 189.31806700536953 234.30646250355267 189.39258265365567 Q 234.53000944841108 189.4670983019418 234.60452509669722 189.4670983019418 Q 234.67904074498335 189.4670983019418 234.90258768984177 189.54161395022794 Q 235.12613463470018 189.61612959851408 235.42419722784473 189.69064524680022 Q 235.7222598209893 189.76516089508635 235.94580676584775 189.76516089508635 Q 236.16935371070616 189.76516089508635 236.4674163038507 189.91419219165863 Q 236.76547889699526 190.06322348823093 236.98902584185367 190.06322348823093 Q 237.21257278671212 190.06322348823093 237.28708843499825 190.06322348823093 Q 237.3616040832844 190.06322348823093 237.5106353798567 190.13773913651707 Q 237.65966667642897 190.2122547848032 237.88321362128738 190.28677043308937 Q 238.1067605661458 190.3612860813755 238.25579186271807 190.3612860813755 Q 238.40482315929034 190.3612860813755 238.62837010414876 190.43580172966165 Q 238.8519170490072 190.51031737794779 239.07546399386564 190.58483302623392 Q 239.29901093872405 190.65934867452006 239.3735265870102 190.65934867452006 Q 239.44804223529633 190.65934867452006 239.52255788358246 190.65934867452006 Q 239.5970735318686 190.65934867452006 239.74610482844088 190.65934867452006 Q 239.89513612501315 190.65934867452006 239.9696517732993 190.7338643228062 Q 240.04416742158543 190.80837997109234 240.26771436644384 190.80837997109234 Q 240.49126131130228 190.80837997109234 240.78932390444686 190.9574112676646 Q 241.0873864975914 191.1064425642369 241.16190214587755 191.1064425642369 Q 241.23641779416369 191.1064425642369 241.38544909073596 191.1064425642369 Q 241.53448038730824 191.1064425642369 241.60899603559437 191.1064425642369 Q 241.6835116838805 191.1064425642369 241.75802733216665 191.1064425642369 Q 241.83254298045279 191.1064425642369 242.13060557359734 191.18095821252302 Q 242.42866816674191 191.25547386080916 242.57769946331422 191.3299895090953 Q 242.7267307598865 191.40450515738144 242.9502777047449 191.47902080566757 Q 243.17382464960332 191.55353645395374 243.3228559461756 191.55353645395374 Q 243.47188724274787 191.55353645395374 243.39737159446173 191.55353645395374 Q 243.3228559461756 191.55353645395374 243.24834029788946 191.55353645395374 Q 243.17382464960332 191.55353645395374 243.09930900131718 191.55353645395374 Q 243.02479335303104 191.55353645395374 242.9502777047449 191.55353645395374 Q 242.87576205645877 191.55353645395374 242.7267307598865 191.55353645395374 Q 242.57769946331422 191.55353645395374 242.57769946331422 191.47902080566757 Q 242.57769946331422 191.40450515738144 242.50318381502808 191.3299895090953 Q 242.42866816674191 191.25547386080916 242.35415251845578 191.1064425642369 Q 242.27963687016964 190.9574112676646 242.20512122188347 190.88289561937847 Q 242.13060557359734 190.80837997109234 242.13060557359734 190.7338643228062 Q 242.13060557359734 190.65934867452006 242.0560899253112 190.51031737794779 Q 241.98157427702506 190.3612860813755 241.98157427702506 190.28677043308937 Q 241.98157427702506 190.2122547848032 241.90705862873892 190.13773913651707 Q 241.83254298045279 190.06322348823093 241.83254298045279 189.91419219165863 Q 241.83254298045279 189.76516089508635 241.83254298045279 189.69064524680022 Q 241.83254298045279 189.61612959851408 241.75802733216665 189.4670983019418 Q 241.6835116838805 189.31806700536953 241.6835116838805 189.16903570879725 Q 241.6835116838805 189.02000441222498 241.6835116838805 188.94548876393884 Q 241.6835116838805 188.8709731156527 241.6835116838805 188.6474261707943 Q 241.6835116838805 188.42387922593585 241.6835116838805 188.2003322810774 Q 241.6835116838805 187.976785336219 241.6835116838805 187.90226968793286 Q 241.6835116838805 187.82775403964672 241.60899603559437 187.6042070947883 Q 241.53448038730824 187.3806601499299 241.53448038730824 187.15711320507148 Q 241.53448038730824 186.93356626021304 241.53448038730824 186.78453496364077 Q 241.53448038730824 186.6355036670685 241.4599647390221 186.56098801878233 Q 241.38544909073596 186.4864723704962 241.38544909073596 186.3374410739239 Q 241.38544909073596 186.18840977735164 241.31093344244982 186.03937848077936 Q 241.23641779416369 185.8903471842071 241.23641779416369 185.7413158876348 Q 241.23641779416369 185.59228459106254 241.16190214587755 185.5177689427764 Q 241.0873864975914 185.44325329449026 241.0873864975914 185.36873764620412 Q 241.0873864975914 185.29422199791796 241.0873864975914 185.21970634963182 Q 241.0873864975914 185.14519070134568 241.01287084930527 184.99615940477338 Q 240.93835520101914 184.8471281082011 240.863839552733 184.69809681162883 Q 240.78932390444683 184.54906551505655 240.78932390444683 184.40003421848428 Q 240.78932390444683 184.251002921912 240.7148082561607 184.17648727362587 Q 240.64029260787456 184.10197162533973 240.64029260787456 184.0274559770536 Q 240.64029260787456 183.95294032876745 240.56577695958842 183.95294032876745 Q 240.49126131130228 183.95294032876745 240.49126131130228 183.87842468048132 Q 240.49126131130228 183.80390903219518 240.49126131130228 183.72939338390904 Q 240.49126131130228 183.65487773562288 240.41674566301612 183.58036208733674 Q 240.34223001472998 183.5058464390506 240.34223001472998 183.3568151424783 Q 240.34223001472998 183.20778384590602 240.26771436644384 183.05875254933375 Q 240.1931987181577 182.90972125276147 240.11868306987157 182.83520560447533 Q 240.04416742158543 182.7606899561892 240.04416742158543 182.61165865961692 Q 240.04416742158543 182.46262736304465 239.9696517732993 182.31359606647237 Q 239.89513612501315 182.1645647699001 239.89513612501315 182.01553347332782 Q 239.89513612501315 181.86650217675552 239.82062047672702 181.79198652846938 Q 239.74610482844088 181.71747088018324 239.67158918015474 181.56843958361094 Q 239.5970735318686 181.41940828703866 239.52255788358246 181.19586134218025 Q 239.44804223529633 180.97231439732184 239.44804223529633 180.8977987490357 Q 239.44804223529633 180.82328310074956 239.3735265870102 180.6742518041773 Q 239.29901093872405 180.525220507605 239.29901093872405 180.37618921103274 Q 239.29901093872405 180.22715791446043 239.29901093872405 180.1526422661743 Q 239.29901093872405 180.07812661788816 239.22449529043791 179.92909532131586 Q 239.14997964215175 179.78006402474358 239.0754639938656 179.55651707988517 Q 239.00094834557947 179.33297013502676 238.92643269729334 179.25845448674062 Q 238.8519170490072 179.18393883845448 238.7028857524349 178.96039189359607 Q 238.55385445586262 178.73684494873763 238.47933880757648 178.5132980038792 Q 238.40482315929034 178.2897510590208 238.3303075110042 178.1407197624485 Q 238.25579186271807 177.99168846587622 238.18127621443193 177.7681415210178 Q 238.1067605661458 177.5445945761594 238.03224491785966 177.32104763130098 Q 237.95772926957352 177.09750068644254 237.95772926957352 177.0229850381564 Q 237.95772926957352 176.94846938987027 237.80869797300124 176.6504067967257 Q 237.65966667642897 176.35234420358114 237.5106353798567 176.12879725872273 Q 237.3616040832844 175.90525031386431 237.3616040832844 175.75621901729204 Q 237.3616040832844 175.60718772071976 237.28708843499825 175.30912512757521 Q 237.21257278671212 175.01106253443064 237.13805713842595 174.7875155895722 Q 237.0635414901398 174.56396864471378 236.98902584185367 174.4149373481415 Q 236.91451019356754 174.26590605156923 236.8399945452814 174.04235910671082 Q 236.76547889699526 173.8188121618524 236.69096324870912 173.595265216994 Q 236.616447600423 173.37171827213555 236.616447600423 173.29720262384942 Q 236.616447600423 173.22268697556328 236.54193195213685 173.07365567899097 Q 236.4674163038507 172.9246243824187 236.4674163038507 172.77559308584642 Q 236.4674163038507 172.62656178927415 236.39290065556457 172.552046140988 Q 236.31838500727844 172.47753049270187 236.31838500727844 172.25398354784346 Q 236.31838500727844 172.03043660298502 236.2438693589923 171.73237400984044 Q 236.16935371070616 171.4343114166959 236.16935371070616 171.35979576840975 Q 236.16935371070616 171.28528012012362 236.09483806242002 170.91270187869293 Q 236.0203224141339 170.54012363726224 236.0203224141339 170.4656079889761 Q 236.0203224141339 170.39109234068994 235.94580676584775 170.16754539583152 Q 235.87129111756158 169.9439984509731 235.79677546927545 169.72045150611467 Q 235.7222598209893 169.49690456125626 235.7222598209893 169.34787326468398 Q 235.7222598209893 169.1988419681117 235.7222598209893 169.04981067153943 Q 235.7222598209893 168.90077937496716 235.64774417270317 168.6027167818226 Q 235.57322852441703 168.30465418867803 235.57322852441703 168.0811072438196 Q 235.57322852441703 167.85756029896118 235.49871287613087 167.78304465067504 Q 235.42419722784473 167.7085290023889 235.42419722784473 167.41046640924435 Q 235.42419722784473 167.11240381609977 235.42419722784473 166.88885687124136 Q 235.42419722784473 166.66530992638295 235.42419722784473 166.59079427809678 Q 235.42419722784473 166.51627862981064 235.3496815795586 166.29273168495223 Q 235.27516593127245 166.06918474009382 235.27516593127245 165.8456377952354 Q 235.27516593127245 165.622090850377 235.20065028298632 165.47305955380472 Q 235.12613463470018 165.3240282572324 235.12613463470018 165.17499696066014 Q 235.12613463470018 165.02596566408786 235.05161898641404 164.80241871922942 Q 234.9771033381279 164.578871774371 234.9771033381279 164.42984047779873 Q 234.9771033381279 164.28080918122646 234.9771033381279 164.13177788465418 Q 234.9771033381279 163.9827465880819 234.9771033381279 163.83371529150963 Q 234.9771033381279 163.68468399493733 234.9771033381279 163.53565269836506 Q 234.9771033381279 163.38662140179278 234.90258768984177 163.0885588086482 Q 234.82807204155563 162.79049621550365 234.82807204155563 162.56694927064524 Q 234.82807204155563 162.34340232578683 234.82807204155563 162.2688866775007 Q 234.82807204155563 162.19437102921452 234.82807204155563 161.9708240843561 Q 234.82807204155563 161.7472771394977 234.82807204155563 161.52373019463926 Q 234.82807204155563 161.30018324978084 234.82807204155563 161.2256676014947 Q 234.82807204155563 161.15115195320857 234.82807204155563 160.77857371177788 Q 234.82807204155563 160.40599547034716 234.82807204155563 160.03341722891645 Q 234.82807204155563 159.66083898748576 234.82807204155563 159.51180769091349 Q 234.82807204155563 159.3627763943412 234.82807204155563 158.99019815291052 Q 234.82807204155563 158.6176199114798 234.82807204155563 158.39407296662137 Q 234.82807204155563 158.17052602176295 234.82807204155563 158.02149472519068 Q 234.82807204155563 157.8724634286184 234.82807204155563 157.64891648376 Q 234.82807204155563 157.42536953890158 234.90258768984177 157.20182259404316 Q 234.9771033381279 156.97827564918472 234.9771033381279 156.82924435261245 Q 234.9771033381279 156.68021305604017 234.9771033381279 156.3821504628956 Q 234.9771033381279 156.08408786975104 234.9771033381279 155.7860252766065 Q 234.9771033381279 155.48796268346192 234.9771033381279 155.33893138688964 Q 234.9771033381279 155.18990009031737 234.9771033381279 154.8918374971728 Q 234.9771033381279 154.59377490402824 235.05161898641404 154.37022795916982 Q 235.12613463470018 154.1466810143114 235.12613463470018 153.99764971773914 Q 235.12613463470018 153.84861842116683 235.12613463470018 153.62507147630842 Q 235.12613463470018 153.40152453145 235.12613463470018 153.10346193830543 Q 235.12613463470018 152.80539934516088 235.12613463470018 152.6563680485886 Q 235.12613463470018 152.50733675201633 235.12613463470018 152.28378980715792 Q 235.12613463470018 152.06024286229948 235.12613463470018 151.7621802691549 Q 235.12613463470018 151.46411767601035 235.12613463470018 151.31508637943807 Q 235.12613463470018 151.1660550828658 235.12613463470018 150.86799248972125 Q 235.12613463470018 150.56992989657667 235.20065028298632 150.34638295171825 Q 235.27516593127245 150.12283600685984 235.27516593127245 149.97380471028754 Q 235.27516593127245 149.82477341371526 235.27516593127245 149.5267108205707 Q 235.27516593127245 149.22864822742616 235.27516593127245 149.00510128256775 Q 235.27516593127245 148.7815543377093 235.27516593127245 148.5580073928509 Q 235.27516593127245 148.33446044799248 235.3496815795586 148.0363978548479 Q 235.42419722784473 147.73833526170336 235.42419722784473 147.36575702027267 Q 235.42419722784473 146.99317877884195 235.42419722784473 146.84414748226968 Q 235.42419722784473 146.6951161856974 235.42419722784473 146.39705359255282 Q 235.42419722784473 146.09899099940827 235.42419722784473 145.87544405454986 Q 235.42419722784473 145.65189710969142 235.42419722784473 145.57738146140528 Q 235.42419722784473 145.50286581311914 235.42419722784473 145.27931886826073 Q 235.42419722784473 145.05577192340232 235.42419722784473 144.90674062683001 Q 235.42419722784473 144.75770933025774 235.49871287613087 144.60867803368546 Q 235.57322852441703 144.4596467371132 235.57322852441703 144.16158414396864 Q 235.57322852441703 143.86352155082406 235.57322852441703 143.71449025425179 Q 235.57322852441703 143.5654589576795 235.57322852441703 143.4164276611072 Q 235.57322852441703 143.26739636453493 235.57322852441703 143.04384941967652 Q 235.57322852441703 142.8203024748181 235.64774417270317 142.67127117824583 Q 235.7222598209893 142.52223988167356 235.7222598209893 142.44772423338742 Q 235.7222598209893 142.37320858510128 235.7222598209893 142.14966164024287 Q 235.7222598209893 141.92611469538443 235.7222598209893 141.702567750526 Q 235.7222598209893 141.47902080566757 235.7222598209893 141.40450515738144 Q 235.7222598209893 141.3299895090953 235.79677546927545 141.18095821252302 Q 235.87129111756158 141.03192691595075 235.87129111756158 140.88289561937847 Q 235.87129111756158 140.7338643228062 235.87129111756158 140.65934867452006 Q 235.87129111756158 140.5848330262339 235.94580676584775 140.51031737794776 Q 236.0203224141339 140.43580172966162 236.09483806242002 140.28677043308934 Q 236.16935371070616 140.13773913651707 236.2438693589923 140.06322348823093 Q 236.31838500727844 139.9887078399448 236.31838500727844 139.91419219165863 Q 236.31838500727844 139.8396765433725 236.39290065556457 139.76516089508635 Q 236.4674163038507 139.69064524680022 236.4674163038507 139.61612959851408 Q 236.4674163038507 139.54161395022794 236.54193195213685 139.4670983019418 Q 236.616447600423 139.39258265365567 236.616447600423 139.31806700536953 Q 236.616447600423 139.2435513570834 236.69096324870912 139.2435513570834 Q 236.76547889699526 139.2435513570834 236.76547889699526 139.16903570879725 Q 236.76547889699526 139.09452006051112 236.39290065556457 139.16903570879725 Q 236.0203224141339 139.2435513570834 235.7222598209893 139.31806700536953 Q 235.42419722784473 139.39258265365567 235.27516593127245 139.39258265365567 Q 235.12613463470018 139.39258265365567 234.82807204155563 139.54161395022794 Q 234.53000944841108 139.69064524680022 234.15743120698036 139.8396765433725 Q 233.78485296554965 139.9887078399448 233.63582166897737 140.06322348823093 Q 233.4867903724051 140.13773913651707 233.1142121309744 140.36128608137548 Q 232.74163388954372 140.5848330262339 232.44357129639914 140.88289561937847 Q 232.14550870325456 141.18095821252302 232.07099305496843 141.25547386080916 Q 231.9964774066823 141.3299895090953 231.69841481353774 141.62805210223985 Q 231.4003522203932 141.92611469538443 231.2513209238209 142.0751459919567 Q 231.10228962724864 142.22417728852898 231.0277739789625 142.29869293681514 Q 230.95325833067636 142.37320858510128 230.8042270341041 142.5967555299597 Q 230.65519573753178 142.8203024748181 230.58068008924562 142.96933377139038 Q 230.50616444095948 143.11836506796266 230.43164879267334 143.26739636453493 Q 230.3571331443872 143.41642766110724 230.20810184781493 143.7144902542518 Q 230.05907055124266 144.01255284739636 229.91003925467038 144.38513108882705 Q 229.7610079580981 144.75770933025774 229.68649230981197 144.90674062683001 Q 229.61197666152583 145.05577192340232 229.46294536495355 145.42835016483303 Q 229.31391406838128 145.80092840626372 229.23939842009514 146.09899099940827 Q 229.16488277180898 146.39705359255282 229.09036712352284 146.47156924083896 Q 229.0158514752367 146.5460848891251 228.94133582695054 146.84414748226965 Q 228.8668201786644 147.14221007541423 228.79230453037826 147.4402726685588 Q 228.71778888209212 147.73833526170336 228.64327323380599 147.88736655827563 Q 228.56875758551985 148.0363978548479 228.4942419372337 148.4089760962786 Q 228.41972628894757 148.7815543377093 228.34521064066143 149.15413257914003 Q 228.2706949923753 149.5267108205707 228.19617934408916 149.675742117143 Q 228.12166369580302 149.82477341371526 228.04714804751688 150.04832035857368 Q 227.97263239923075 150.27186730343212 227.82360110265847 150.5699298965767 Q 227.6745698060862 150.86799248972125 227.60005415780006 151.01702378629352 Q 227.5255385095139 151.1660550828658 227.45102286122776 151.46411767601035 Q 227.37650721294162 151.76218026915492 227.15296026808318 152.13475851058564 Q 226.92941332322476 152.50733675201633 226.85489767493863 152.73088369687474 Q 226.7803820266525 152.95443064173315 226.55683508179408 153.40152453144998 Q 226.33328813693566 153.84861842116683 226.10974119207725 154.2957123108837 Q 225.8861942472188 154.7428062006005 225.73716295064654 155.04086879374506 Q 225.58813165407426 155.33893138688964 225.36458470921582 155.7860252766065 Q 225.1410377643574 156.23311916632332 224.84297517121286 156.82924435261245 Q 224.5449125780683 157.42536953890158 224.39588128149603 157.64891648376 Q 224.24684998492373 157.8724634286184 223.874271743493 158.54310426319367 Q 223.50169350206232 159.21374509776894 223.12911526063164 159.80987028405804 Q 222.75653701920095 160.40599547034716 222.53299007434254 160.70405806349174 Q 222.3094431294841 161.0021206566363 222.01138053633952 161.52373019463926 Q 221.71331794319497 162.04533973264225 221.48977099833655 162.41791797407296 Q 221.26622405347814 162.79049621550365 221.191708405192 162.93952751207593 Q 221.11719275690587 163.0885588086482 220.8191301637613 163.4611370500789 Q 220.5210675706167 163.8337152915096 220.22300497747216 164.3553248295126 Q 219.9249423843276 164.87693436751556 219.7013954394692 165.10048131237397 Q 219.47784849461078 165.3240282572324 219.10527025318007 165.8456377952354 Q 218.73269201174935 166.36724733323837 218.36011377031866 166.9633725195275 Q 217.98753552888797 167.55949770581663 217.8385042323157 167.78304465067504 Q 217.68947293574342 168.00659159553345 217.46592599088498 168.37916983696414 Q 217.24237904602654 168.75174807839485 216.944316452882 169.12432631982557 Q 216.64625385973744 169.49690456125626 216.5717382114513 169.64593585782853 Q 216.49722256316517 169.7949671544008 216.27367561830675 170.16754539583152 Q 216.05012867344834 170.54012363726224 215.75206608030376 170.91270187869293 Q 215.45400348715918 171.28528012012362 215.37948783887305 171.50882706498203 Q 215.3049721905869 171.73237400984047 215.0814252457285 172.03043660298505 Q 214.85787830087008 172.3284991961296 214.78336265258395 172.62656178927415 Q 214.7088470042978 172.9246243824187 214.55981570772553 173.07365567899097 Q 214.41078441115326 173.22268697556328 214.26175311458098 173.52074956870786 Q 214.11272181800868 173.8188121618524 213.96369052143638 174.11687475499696 Q 213.8146592248641 174.4149373481415 213.74014357657796 174.56396864471378 Q 213.66562792829183 174.71299994128606 213.36756533514728 175.1600938310029 Q 213.06950274200273 175.60718772071976 212.92047144543045 175.97976596215045 Q 212.77144014885818 176.35234420358114 212.6224088522859 176.50137550015342 Q 212.4733775557136 176.65040679672572 212.3243462591413 177.09750068644257 Q 212.17531496256902 177.5445945761594 211.87725236942447 177.99168846587622 Q 211.57918977627992 178.43878235559308 211.50467412799378 178.66232930045152 Q 211.43015847970764 178.88587624530993 211.20661153484923 179.4074857833129 Q 210.9830645899908 179.92909532131588 210.61048634856007 180.45070485931888 Q 210.23790810712939 180.97231439732184 210.16339245884325 181.19586134218025 Q 210.0888768105571 181.41940828703866 209.8653298656987 181.79198652846938 Q 209.64178292084028 182.1645647699001 209.41823597598187 182.53714301133078 Q 209.19468903112343 182.90972125276147 209.04565773455113 183.05875254933375 Q 208.89662643797885 183.20778384590602 208.67307949312044 183.65487773562288 Q 208.44953254826203 184.10197162533973 208.15146995511748 184.54906551505655 Q 207.85340736197293 184.9961594047734 207.62986041711451 185.21970634963185 Q 207.40631347225607 185.44325329449026 207.1082508791115 185.96486283249322 Q 206.81018828596694 186.4864723704962 206.58664134110853 186.78453496364077 Q 206.36309439625012 187.08259755678534 206.36309439625012 187.23162885335762 Q 206.36309439625012 187.3806601499299 206.28857874796398 187.52969144650217 Q 206.21406309967784 187.67872274307445 206.1395474513917 187.67872274307445 Q 206.06503180310557 187.67872274307445 206.06503180310557 187.75323839136058 Q 206.06503180310557 187.82775403964672 205.99051615481943 187.90226968793286 Q 205.91600050653327 187.976785336219 205.84148485824713 188.05130098450513 Q 205.766969209961 188.12581663279127 205.69245356167482 188.27484792936355 Q 205.6179379133887 188.42387922593585 205.54342226510255 188.498394874222 Q 205.4689066168164 188.57291052250812 205.39439096853027 188.6474261707943 Q 205.31987532024414 188.72194181908043 205.245359671958 188.79645746736657 Q 205.17084402367186 188.8709731156527 205.09632837538572 188.94548876393884 Q 205.0218127270996 189.02000441222498 204.94729707881345 189.02000441222498 Q 204.8727814305273 189.02000441222498 204.8727814305273 189.09452006051112 Q 204.8727814305273 189.16903570879725 204.79826578224117 189.16903570879725 Q 204.72375013395504 189.16903570879725 204.72375013395504 189.2435513570834 Q 204.72375013395504 189.31806700536953 204.72375013395504 189.2435513570834 Q 204.72375013395504 189.16903570879725 204.94729707881345 189.09452006051112 Q 205.17084402367186 189.02000441222498 205.4689066168164 188.8709731156527 Q 205.766969209961 188.72194181908043 205.9160005065333 188.6474261707943 Q 206.06503180310557 188.57291052250812 206.36309439625012 188.42387922593585 Q 206.66115698939467 188.27484792936357 206.88470393425308 188.2003322810774 Q 207.1082508791115 188.12581663279127 207.25728217568377 188.05130098450513 Q 207.40631347225607 187.976785336219 207.62986041711451 187.90226968793286 Q 207.85340736197293 187.82775403964672 208.07695430683134 187.75323839136058 Q 208.30050125168975 187.67872274307445 208.3750168999759 187.67872274307445 Q 208.44953254826203 187.67872274307445 208.74759514140658 187.6042070947883 Q 209.04565773455116 187.52969144650217 209.492751624268 187.45517579821603 Q 209.93984551398484 187.3806601499299 210.23790810712939 187.3806601499299 Q 210.53597070027394 187.3806601499299 210.9830645899908 187.23162885335762 Q 211.43015847970764 187.08259755678534 211.9517680177106 187.0080819084992 Q 212.4733775557136 186.93356626021304 212.69692450057204 186.8590506119269 Q 212.92047144543045 186.78453496364077 213.29304968686114 186.71001931535463 Q 213.66562792829183 186.6355036670685 214.03820616972254 186.6355036670685 Q 214.41078441115326 186.6355036670685 214.55981570772553 186.6355036670685 Q 214.7088470042978 186.6355036670685 215.00690959744236 186.6355036670685 Q 215.3049721905869 186.6355036670685 215.75206608030376 186.6355036670685 Q 216.19915997002062 186.6355036670685 216.42270691487903 186.6355036670685 Q 216.64625385973744 186.6355036670685 217.24237904602657 186.6355036670685 Q 217.8385042323157 186.6355036670685 218.4346294186048 186.56098801878233 Q 219.03075460489393 186.4864723704962 219.40333284632464 186.41195672221005 Q 219.77591108775533 186.3374410739239 220.37203627404443 186.3374410739239 Q 220.96816146033356 186.3374410739239 221.5642866466227 186.3374410739239 Q 222.1604118329118 186.3374410739239 222.45847442605637 186.3374410739239 Q 222.75653701920095 186.3374410739239 223.20363090891777 186.3374410739239 Q 223.6507247986346 186.3374410739239 224.09781868835145 186.3374410739239 Q 224.5449125780683 186.3374410739239 224.69394387464058 186.3374410739239 Q 224.84297517121286 186.3374410739239 225.29006906092968 186.3374410739239 Q 225.73716295064654 186.3374410739239 226.33328813693566 186.3374410739239 Q 226.92941332322476 186.3374410739239 227.30199156465548 186.3374410739239 Q 227.6745698060862 186.3374410739239 228.49424193723374 186.41195672221005 Q 229.31391406838128 186.4864723704962 229.98455490295652 186.4864723704962 Q 230.65519573753178 186.4864723704962 230.95325833067636 186.4864723704962 Q 231.2513209238209 186.4864723704962 231.69841481353774 186.4864723704962 Q 232.14550870325456 186.4864723704962 232.44357129639914 186.4864723704962 Q 232.74163388954372 186.4864723704962 232.890665186116 186.4864723704962 Q 233.03969648268827 186.4864723704962 233.4867903724051 186.56098801878233 Q 233.93388426212195 186.6355036670685 234.30646250355267 186.6355036670685 Q 234.67904074498335 186.6355036670685 234.90258768984177 186.6355036670685 Q 235.12613463470018 186.6355036670685 235.49871287613087 186.6355036670685 Q 235.87129111756158 186.6355036670685 236.2438693589923 186.6355036670685 Q 236.616447600423 186.6355036670685 236.69096324870912 186.6355036670685 Q 236.76547889699526 186.6355036670685 237.0635414901398 186.6355036670685 Q 237.3616040832844 186.6355036670685 237.65966667642897 186.6355036670685 Q 237.95772926957352 186.6355036670685 238.1067605661458 186.6355036670685 Q 238.25579186271807 186.6355036670685 238.55385445586262 186.71001931535463 Q 238.8519170490072 186.78453496364077 239.00094834557947 186.78453496364077 Q 239.14997964215175 186.78453496364077 239.22449529043791 186.78453496364077 Q 239.29901093872405 186.78453496364077 239.3735265870102 186.78453496364077 Q 239.44804223529633 186.78453496364077 239.52255788358246 186.8590506119269 Q 239.5970735318686 186.93356626021304 239.67158918015474 187.0080819084992 Q 239.74610482844088 187.08259755678534 239.74610482844088 187.15711320507148 Q 239.74610482844088 187.23162885335762 239.67158918015474 187.15711320507148 Q 239.5970735318686 187.08259755678534 239.5970735318686 186.93356626021307 Q 239.5970735318686 186.78453496364077 239.52255788358246 186.3374410739239 Q 239.44804223529633 185.8903471842071 239.3735265870102 185.66680023934867 Q 239.29901093872405 185.44325329449026 239.07546399386564 184.84712810820113 Q 238.8519170490072 184.251002921912 238.62837010414876 183.58036208733674 Q 238.40482315929034 182.90972125276147 238.3303075110042 182.61165865961692 Q 238.25579186271807 182.31359606647237 238.1067605661458 181.94101782504168 Q 237.95772926957352 181.56843958361097 237.80869797300124 181.19586134218025 Q 237.65966667642897 180.82328310074956 237.58515102814283 180.6742518041773 Q 237.51063537985667 180.525220507605 237.43611973157053 180.3016735627466 Q 237.3616040832844 180.07812661788816 237.3616040832844 179.92909532131586 Q 237.3616040832844 179.78006402474358 237.28708843499825 179.6310327281713 Q 237.21257278671212 179.48200143159903 237.13805713842595 179.10942319016834 Q 237.0635414901398 178.73684494873763 236.91451019356754 178.3642667073069 Q 236.76547889699526 177.99168846587622 236.76547889699526 177.69362587273167 Q 236.76547889699526 177.39556327958712 236.616447600423 177.02298503815643 Q 236.4674163038507 176.65040679672572 236.31838500727844 176.20331290700886 Q 236.16935371070616 175.75621901729204 236.16935371070616 175.6817033690059 Q 236.16935371070616 175.60718772071976 236.09483806242002 175.38364077586135 Q 236.0203224141339 175.1600938310029 236.0203224141339 175.08557818271677 Q 236.0203224141339 175.01106253443064 236.0203224141339 174.9365468861445 Q 236.0203224141339 174.86203123785836 235.94580676584775 174.56396864471378 Q 235.87129111756158 174.26590605156923 235.7222598209893 173.74429651356627 Q 235.57322852441703 173.22268697556328 235.57322852441703 172.9246243824187 Q 235.57322852441703 172.62656178927415 235.42419722784473 172.03043660298502 Q 235.27516593127245 171.4343114166959 235.12613463470018 170.91270187869293 Q 234.9771033381279 170.39109234068994 234.9771033381279 170.16754539583152 Q 234.9771033381279 169.9439984509731 234.90258768984177 169.64593585782853 Q 234.82807204155563 169.34787326468398 234.7535563932695 169.12432631982557 Q 234.67904074498335 168.90077937496716 234.67904074498335 168.75174807839488 Q 234.67904074498335 168.60271678182258 234.60452509669722 168.304654188678 Q 234.53000944841108 168.00659159553345 234.3809781518388 167.4849820575305 Q 234.2319468552665 166.9633725195275 234.15743120698036 166.66530992638292 Q 234.08291555869422 166.36724733323837 233.93388426212192 165.92015344352154 Q 233.78485296554965 165.4730595538047 233.7103373172635 165.02596566408783 Q 233.63582166897737 164.578871774371 233.56130602069123 164.3553248295126 Q 233.4867903724051 164.13177788465418 233.41227472411896 163.7591996432235 Q 233.33775907583282 163.38662140179278 233.33775907583282 162.93952751207593 Q 233.33775907583282 162.4924336223591 233.26324342754668 162.34340232578683 Q 233.18872777926055 162.19437102921452 233.1142121309744 161.74727713949767 Q 233.03969648268827 161.30018324978084 232.96518083440213 160.85308936006402 Q 232.890665186116 160.40599547034716 232.890665186116 160.1079328772026 Q 232.890665186116 159.80987028405804 232.81614953782986 159.28826074605507 Q 232.74163388954372 158.76665120805208 232.74163388954372 158.2450416700491 Q 232.74163388954372 157.72343213204613 232.74163388954372 157.42536953890158 Q 232.74163388954372 157.127306945757 232.66711824125758 156.605697407754 Q 232.59260259297142 156.08408786975104 232.59260259297142 155.48796268346192 Q 232.59260259297142 154.8918374971728 232.59260259297142 154.66829055231437 Q 232.59260259297142 154.44474360745596 232.51808694468528 153.99764971773914 Q 232.44357129639914 153.55055582802228 232.44357129639914 153.10346193830543 Q 232.44357129639914 152.6563680485886 232.44357129639914 152.4328211037302 Q 232.44357129639914 152.20927415887175 232.44357129639914 151.7621802691549 Q 232.44357129639914 151.31508637943807 232.44357129639914 150.86799248972125 Q 232.44357129639914 150.4208986000044 232.44357129639914 150.19735165514598 Q 232.44357129639914 149.97380471028757 232.369055648113 149.60122646885685 Q 232.29453999982687 149.22864822742616 232.29453999982687 148.85606998599548 Q 232.29453999982687 148.48349174456476 232.29453999982687 148.33446044799246 Q 232.29453999982687 148.18542915142018 232.29453999982687 147.88736655827563 Q 232.29453999982687 147.58930396513108 232.29453999982687 147.29124137198653 Q 232.29453999982687 146.99317877884195 232.29453999982687 146.7696318339835 Q 232.29453999982687 146.5460848891251 232.29453999982687 146.24802229598055 Q 232.29453999982687 145.949959702836 232.29453999982687 145.72641275797758 Q 232.29453999982687 145.50286581311914 232.29453999982687 145.35383451654687 Q 232.29453999982687 145.2048032199746 232.29453999982687 145.0557719234023 Q 232.29453999982687 144.90674062683001 232.29453999982687 144.83222497854388 Q 232.29453999982687 144.75770933025774 232.29453999982687 144.6831936819716 Q 232.29453999982687 144.60867803368546 232.29453999982687 144.53416238539933 Q 232.29453999982687 144.4596467371132 232.29453999982687 144.38513108882705 Q 232.29453999982687 144.31061544054091 232.29453999982687 144.16158414396864 Q 232.29453999982687 144.01255284739636 232.369055648113 144.01255284739636 Q 232.44357129639914 144.01255284739636 232.44357129639914 143.93803719911023 Q 232.44357129639914 143.86352155082406 232.44357129639914 143.93803719911023 Q 232.44357129639914 144.01255284739636 232.44357129639914 144.23609979225478 Q 232.44357129639914 144.4596467371132 232.369055648113 144.6831936819716 Q 232.29453999982687 144.90674062683001 232.2200243515407 145.20480321997456 Q 232.14550870325456 145.50286581311914 232.14550870325456 145.57738146140528 Q 232.14550870325456 145.65189710969142 232.14550870325456 145.57738146140528 Q 232.14550870325456 145.50286581311914 232.14550870325456 145.20480321997456 Q 232.14550870325456 144.90674062683001 232.2200243515407 144.60867803368546 Q 232.29453999982687 144.31061544054091 232.29453999982687 144.23609979225478 Q 232.29453999982687 144.16158414396864 232.29453999982687 144.0870684956825 Q 232.29453999982687 144.01255284739636 232.29453999982687 143.93803719911023 Q 232.29453999982687 143.86352155082406 232.29453999982687 143.78900590253792 Q 232.29453999982687 143.71449025425179 232.2200243515407 144.01255284739636 Q 232.14550870325456 144.31061544054091 232.07099305496843 144.6831936819716 Q 231.9964774066823 145.05577192340232 231.84744611011 145.65189710969145 Q 231.69841481353774 146.24802229598055 231.54938351696546 146.9186631305558 Q 231.4003522203932 147.58930396513108 231.4003522203932 147.88736655827563 Q 231.4003522203932 148.18542915142018 231.32583657210705 148.7815543377093 Q 231.2513209238209 149.37767952399844 231.10228962724864 149.82477341371526 Q 230.95325833067636 150.27186730343212 230.95325833067636 150.49541424829056 Q 230.95325833067636 150.71896119314897 230.87874268239023 151.1660550828658 Q 230.80422703410406 151.61314897258262 230.65519573753176 152.06024286229948 Q 230.50616444095948 152.50733675201633 230.43164879267334 152.73088369687474 Q 230.3571331443872 152.95443064173315 230.28261749610107 153.40152453144998 Q 230.20810184781493 153.84861842116683 230.1335861995288 154.22119666259755 Q 230.05907055124266 154.59377490402824 229.98455490295652 154.7428062006005 Q 229.91003925467038 154.8918374971728 229.7610079580981 155.18990009031734 Q 229.61197666152583 155.48796268346192 229.46294536495355 155.7860252766065 Q 229.31391406838128 156.08408786975104 229.23939842009514 156.30763481460946 Q 229.16488277180898 156.53118175946787 228.94133582695054 156.82924435261242 Q 228.71778888209212 157.127306945757 228.4942419372337 157.57440083547385 Q 228.2706949923753 158.02149472519068 228.12166369580302 158.2450416700491 Q 227.97263239923075 158.46858861490753 227.74908545437233 158.91568250462439 Q 227.5255385095139 159.3627763943412 227.22747591636931 159.80987028405804 Q 226.92941332322476 160.2569641737749 226.70586637836635 160.48051111863333 Q 226.48231943350794 160.70405806349174 226.10974119207725 161.30018324978084 Q 225.73716295064654 161.89630843606997 225.29006906092968 162.56694927064524 Q 224.84297517121286 163.23759010522048 224.61942822635444 163.53565269836503 Q 224.39588128149603 163.8337152915096 223.94878739177918 164.50435612608487 Q 223.50169350206232 165.17499696066014 223.20363090891777 165.622090850377 Q 222.90556831577322 166.06918474009382 222.75653701920095 166.29273168495223 Q 222.60750572262864 166.51627862981064 222.30944312948407 166.88885687124136 Q 222.01138053633952 167.26143511267207 221.71331794319497 167.63401335410276 Q 221.41525535005042 168.00659159553345 221.26622405347814 168.23013854039186 Q 221.11719275690587 168.4536854852503 220.74461451547515 168.9752950232533 Q 220.37203627404443 169.49690456125626 219.9249423843276 170.0930297475454 Q 219.47784849461078 170.68915493383452 219.25430154975237 170.98721752697907 Q 219.03075460489393 171.28528012012362 218.58366071517707 171.8068896581266 Q 218.13656682546025 172.3284991961296 217.76398858402956 172.77559308584642 Q 217.39141034259885 173.22268697556328 217.24237904602654 173.4462339204217 Q 217.09334774945427 173.6697808652801 216.86980080459585 174.04235910671082 Q 216.64625385973744 174.4149373481415 216.3481912665929 174.86203123785833 Q 216.05012867344834 175.3091251275752 215.90109737687607 175.53267207243363 Q 215.75206608030376 175.75621901729204 215.45400348715918 176.20331290700886 Q 215.15594089401463 176.65040679672572 214.93239394915622 177.02298503815643 Q 214.7088470042978 177.39556327958712 214.55981570772553 177.5445945761594 Q 214.41078441115326 177.69362587273167 214.26175311458098 177.91717281759009 Q 214.11272181800868 178.1407197624485 213.88917487315024 178.43878235559305 Q 213.66562792829183 178.73684494873763 213.5911122800057 178.88587624530993 Q 213.51659663171955 179.0349075418822 213.36756533514728 179.33297013502676 Q 213.218534038575 179.6310327281713 212.9949870937166 180.003610969602 Q 212.77144014885818 180.3761892110327 212.6224088522859 180.525220507605 Q 212.4733775557136 180.6742518041773 212.24983061085516 181.1213456938941 Q 212.02628366599674 181.56843958361097 211.80273672113833 181.86650217675555 Q 211.57918977627992 182.1645647699001 211.43015847970764 182.46262736304465 Q 211.28112718313537 182.7606899561892 211.20661153484923 182.90972125276147 Q 211.1320958865631 183.05875254933375 210.98306458999082 183.3568151424783 Q 210.8340332934185 183.65487773562288 210.6850019968462 183.80390903219518 Q 210.53597070027394 183.95294032876745 210.38693940370166 184.17648727362587 Q 210.23790810712939 184.40003421848428 210.0888768105571 184.69809681162883 Q 209.93984551398484 184.9961594047734 209.8653298656987 185.14519070134568 Q 209.79081421741256 185.29422199791796 209.64178292084028 185.5177689427764 Q 209.492751624268 185.7413158876348 209.492751624268 185.8903471842071 Q 209.492751624268 186.03937848077936 209.56726727255415 186.03937848077936 Q 209.64178292084028 186.03937848077936 209.8653298656987 186.03937848077936 Q 210.0888768105571 186.03937848077936 210.53597070027394 185.96486283249322 Q 210.9830645899908 185.8903471842071 211.3556428314215 185.81583153592095 Q 211.7282210728522 185.7413158876348 212.4733775557136 185.44325329449026 Q 213.218534038575 185.14519070134568 213.81465922486413 184.92164375648724 Q 214.41078441115326 184.69809681162883 214.7088470042978 184.6235811633427 Q 215.00690959744236 184.54906551505655 215.67755043201763 184.40003421848428 Q 216.3481912665929 184.251002921912 217.0933477494543 184.10197162533973 Q 217.8385042323157 183.95294032876745 218.5836607151771 183.87842468048132 Q 219.3288171980385 183.80390903219518 219.62687979118306 183.72939338390904 Q 219.9249423843276 183.65487773562288 220.59558321890287 183.58036208733674 Q 221.26622405347814 183.5058464390506 221.5642866466227 183.43133079076446 Q 221.86234923976724 183.35681514247833 222.38395877777023 183.28229949419216 Q 222.90556831577322 183.20778384590602 223.50169350206232 183.13326819761988 Q 224.09781868835145 183.05875254933375 224.3213656332099 182.9842369010476 Q 224.5449125780683 182.90972125276147 225.1410377643574 182.83520560447533 Q 225.73716295064654 182.7606899561892 226.4078037852218 182.68617430790306 Q 227.07844461979704 182.61165865961692 227.67456980608617 182.61165865961692 Q 228.2706949923753 182.61165865961692 228.4942419372337 182.61165865961692 Q 228.71778888209212 182.61165865961692 229.16488277180898 182.53714301133078 Q 229.61197666152583 182.46262736304465 229.98455490295652 182.46262736304465 Q 230.3571331443872 182.46262736304465 230.58068008924562 182.46262736304465 Q 230.80422703410406 182.46262736304465 231.17680527553478 182.46262736304465 Q 231.54938351696546 182.46262736304465 231.84744611011 182.46262736304465 Q 232.14550870325456 182.46262736304465 232.29453999982684 182.46262736304465 Q 232.44357129639914 182.46262736304465 232.51808694468528 182.46262736304465 Q 232.59260259297142 182.46262736304465 232.66711824125758 182.46262736304465 Q 232.74163388954372 182.46262736304465 232.81614953782986 182.46262736304465 Q 232.890665186116 182.46262736304465 233.1142121309744 182.61165865961692 Q 233.33775907583282 182.7606899561892 233.63582166897737 182.90972125276147 Q 233.93388426212195 183.05875254933375 234.0083999104081 183.13326819761988 Q 234.08291555869422 183.20778384590602 234.23194685526653 183.28229949419216 Q 234.3809781518388 183.35681514247833 234.45549380012494 183.35681514247833 Q 234.53000944841108 183.35681514247833 234.60452509669722 183.35681514247833 Q 234.67904074498335 183.35681514247833 234.90258768984177 183.43133079076446 Q 235.12613463470018 183.5058464390506 235.20065028298632 183.5058464390506 Q 235.27516593127245 183.5058464390506 235.3496815795586 183.5058464390506 Q 235.42419722784473 183.5058464390506 235.49871287613087 183.5058464390506 Q 235.57322852441703 183.5058464390506 235.64774417270317 183.5058464390506 Q 235.7222598209893 183.5058464390506 235.94580676584775 183.58036208733674 Q 236.16935371070616 183.65487773562288 236.2438693589923 183.65487773562288 Q 236.31838500727844 183.65487773562288 236.4674163038507 183.65487773562288 Q 236.616447600423 183.65487773562288 236.69096324870912 183.72939338390904 Q 236.76547889699526 183.80390903219518 236.69096324870912 183.72939338390904 Q 236.616447600423 183.65487773562288 236.4674163038507 183.43133079076443 Q 236.31838500727844 183.20778384590602 235.94580676584775 182.53714301133078 Q 235.57322852441703 181.86650217675552 235.20065028298632 181.04683004560798 Q 234.82807204155563 180.22715791446043 234.60452509669722 179.85457967302972 Q 234.3809781518388 179.48200143159903 234.0083999104081 178.73684494873763 Q 233.63582166897737 177.99168846587622 233.33775907583282 177.24653198301482 Q 233.03969648268827 176.50137550015342 232.890665186116 176.20331290700886 Q 232.74163388954372 175.90525031386431 232.5180869446853 175.1600938310029 Q 232.29453999982687 174.4149373481415 232.07099305496843 173.74429651356624 Q 231.84744611011 173.07365567899097 231.77293046182388 172.77559308584642 Q 231.69841481353774 172.47753049270187 231.54938351696546 171.88140530641274 Q 231.4003522203932 171.28528012012362 231.2513209238209 170.61463928554838 Q 231.10228962724864 169.9439984509731 231.10228962724864 169.5714202095424 Q 231.10228962724864 169.1988419681117 230.95325833067636 168.60271678182258 Q 230.80422703410406 168.00659159553345 230.72971138581792 167.4849820575305 Q 230.65519573753178 166.9633725195275 230.65519573753178 166.66530992638292 Q 230.65519573753178 166.36724733323837 230.65519573753178 165.77112214694927 Q 230.65519573753178 165.17499696066014 230.58068008924562 164.65338742265715 Q 230.50616444095948 164.13177788465418 230.50616444095948 163.90823093979577 Q 230.50616444095948 163.68468399493733 230.50616444095948 163.16307445693434 Q 230.50616444095948 162.64146491893138 230.50616444095948 162.1198553809284 Q 230.50616444095948 161.59824584292542 230.50616444095948 161.30018324978084 Q 230.50616444095948 161.0021206566363 230.58068008924562 160.55502676691947 Q 230.65519573753178 160.10793287720261 230.65519573753178 159.58632333919962 Q 230.65519573753178 159.06471380119666 230.65519573753178 158.84116685633825 Q 230.65519573753178 158.6176199114798 230.65519573753178 158.17052602176295 Q 230.65519573753178 157.72343213204613 230.72971138581792 157.35085389061544 Q 230.80422703410406 156.97827564918472 230.80422703410406 156.82924435261245 Q 230.80422703410406 156.68021305604017 230.80422703410406 156.53118175946787 Q 230.80422703410406 156.3821504628956 230.80422703410406 156.30763481460946 Q 230.80422703410406 156.23311916632332 230.80422703410406 156.30763481460946 Q 230.80422703410406 156.3821504628956 230.58068008924562 156.82924435261245 Q 230.3571331443872 157.2763382423293 230.05907055124266 157.8724634286184 Q 229.7610079580981 158.46858861490753 229.5374610132397 158.7666512080521 Q 229.31391406838128 159.06471380119666 229.0158514752367 159.80987028405806 Q 228.71778888209212 160.55502676691947 228.2706949923753 161.30018324978084 Q 227.82360110265847 162.04533973264225 227.60005415780006 162.4924336223591 Q 227.37650721294162 162.93952751207593 227.0039289715109 163.68468399493733 Q 226.63135073008021 164.42984047779873 226.1842568403634 165.02596566408786 Q 225.73716295064654 165.622090850377 225.58813165407423 165.99466909180768 Q 225.43910035750196 166.36724733323837 224.99200646778513 166.9633725195275 Q 224.5449125780683 167.55949770581663 224.02330304006531 168.2301385403919 Q 223.50169350206232 168.90077937496716 223.2781465572039 169.1988419681117 Q 223.0545996123455 169.49690456125626 222.45847442605637 170.16754539583152 Q 221.86234923976724 170.8381862304068 221.34073970176428 171.4343114166959 Q 220.8191301637613 172.03043660298502 220.59558321890285 172.3284991961296 Q 220.37203627404443 172.62656178927415 219.85042673604147 173.1481713272771 Q 219.3288171980385 173.6697808652801 218.80720766003552 174.11687475499696 Q 218.28559812203252 174.56396864471378 218.0620511771741 174.86203123785833 Q 217.8385042323157 175.1600938310029 217.3168946943127 175.6817033690059 Q 216.79528515630972 176.20331290700886 216.3481912665929 176.799438093298 Q 215.90109737687604 177.39556327958712 215.60303478373146 177.69362587273167 Q 215.3049721905869 177.99168846587622 214.85787830087008 178.5132980038792 Q 214.41078441115326 179.0349075418822 214.11272181800868 179.48200143159903 Q 213.8146592248641 179.92909532131588 213.66562792829183 180.1526422661743 Q 213.51659663171955 180.3761892110327 213.29304968686114 180.59973615589115 Q 213.06950274200273 180.82328310074956 212.92047144543045 181.1213456938941 Q 212.77144014885818 181.41940828703866 212.69692450057204 181.56843958361094 Q 212.62240885228587 181.71747088018324 212.4733775557136 181.94101782504168 Q 212.32434625914132 182.1645647699001 212.24983061085516 182.3881117147585 Q 212.17531496256902 182.61165865961692 212.17531496256902 182.68617430790306 Q 212.17531496256902 182.7606899561892 212.24983061085516 182.7606899561892 Q 212.32434625914132 182.7606899561892 212.39886190742746 182.7606899561892 Q 212.4733775557136 182.7606899561892 212.54789320399973 182.7606899561892 Q 212.62240885228587 182.7606899561892 212.9949870937166 182.68617430790306 Q 213.36756533514728 182.61165865961692 214.26175311458096 182.53714301133078 Q 215.15594089401463 182.46262736304465 215.67755043201763 182.46262736304465 Q 216.19915997002062 182.46262736304465 217.3168946943127 182.31359606647237 Q 218.4346294186048 182.1645647699001 219.62687979118306 182.1645647699001 Q 220.8191301637613 182.1645647699001 221.26622405347814 182.09004912161396 Q 221.71331794319497 182.01553347332782 222.60750572262864 182.01553347332782 Q 223.50169350206232 182.01553347332782 224.24684998492373 181.86650217675555 Q 224.99200646778513 181.71747088018324 225.36458470921582 181.71747088018324 Q 225.73716295064654 181.71747088018324 226.33328813693566 181.56843958361094 Q 226.92941332322476 181.41940828703866 227.5255385095139 181.34489263875253 Q 228.12166369580302 181.2703769904664 228.34521064066143 181.2703769904664 Q 228.56875758551985 181.2703769904664 229.0158514752367 181.19586134218025 Q 229.46294536495355 181.1213456938941 229.7610079580981 181.1213456938941 Q 230.05907055124266 181.1213456938941 230.20810184781493 181.1213456938941 Q 230.3571331443872 181.1213456938941 230.65519573753178 181.1213456938941 Q 230.95325833067636 181.1213456938941 231.17680527553478 181.1213456938941 Q 231.4003522203932 181.1213456938941 231.54938351696546 181.04683004560798 Q 231.69841481353774 180.97231439732184 231.92196175839615 180.97231439732184 Q 232.14550870325456 180.97231439732184 232.36905564811298 180.97231439732184 Q 232.59260259297142 180.97231439732184 232.66711824125758 180.97231439732184 Q 232.74163388954372 180.97231439732184 232.74163388954372 180.8977987490357 Q 232.74163388954372 180.82328310074956 232.74163388954372 180.45070485931888 Q 232.74163388954372 180.07812661788816 232.74163388954372 179.78006402474358 Q 232.74163388954372 179.48200143159903 232.74163388954372 179.25845448674062 Q 232.74163388954372 179.0349075418822 232.66711824125758 178.58781365216535 Q 232.59260259297142 178.1407197624485 232.51808694468528 177.5445945761594 Q 232.44357129639914 176.94846938987027 232.29453999982684 176.57589114843955 Q 232.14550870325456 176.20331290700886 231.92196175839615 175.60718772071976 Q 231.69841481353774 175.01106253443064 231.47486786867933 174.4149373481415 Q 231.2513209238209 173.8188121618524 231.10228962724864 173.4462339204217 Q 230.95325833067636 173.07365567899097 230.58068008924565 172.40301484441574 Q 230.20810184781493 171.73237400984047 230.05907055124266 170.98721752697907 Q 229.91003925467038 170.24206104411766 229.7610079580981 169.86948280268695 Q 229.61197666152583 169.49690456125626 229.38842971666742 168.90077937496716 Q 229.16488277180898 168.30465418867803 229.01585147523667 167.7085290023889 Q 228.8668201786644 167.11240381609977 228.8668201786644 166.8143412229552 Q 228.8668201786644 166.51627862981064 228.71778888209212 165.99466909180768 Q 228.56875758551985 165.4730595538047 228.4942419372337 164.9514500158017 Q 228.41972628894757 164.42984047779873 228.34521064066143 164.20629353294032 Q 228.2706949923753 163.9827465880819 228.2706949923753 163.7591996432235 Q 228.2706949923753 163.53565269836506 228.19617934408916 163.46113705007892 Q 228.12166369580302 163.38662140179278 228.04714804751688 163.53565269836506 Q 227.97263239923075 163.68468399493733 227.74908545437233 163.83371529150963 Q 227.5255385095139 163.9827465880819 227.07844461979704 164.50435612608487 Q 226.63135073008021 165.02596566408786 226.03522554379109 165.77112214694927 Q 225.43910035750196 166.51627862981064 225.1410377643574 166.88885687124136 Q 224.84297517121286 167.26143511267207 224.1723343366376 168.15562289210575 Q 223.50169350206232 169.04981067153943 222.98008396405936 169.79496715440084 Q 222.45847442605637 170.54012363726224 222.23492748119793 170.91270187869293 Q 222.01138053633952 171.28528012012362 221.63880229490883 171.95592095469888 Q 221.26622405347814 172.62656178927415 220.9681614603336 173.22268697556328 Q 220.670098867189 173.8188121618524 220.44655192233057 174.11687475499696 Q 220.22300497747216 174.4149373481415 219.85042673604147 174.93654688614447 Q 219.47784849461078 175.45815642414746 219.03075460489393 176.0542816104366 Q 218.58366071517707 176.65040679672572 218.4346294186048 176.9484693898703 Q 218.28559812203252 177.24653198301485 217.91301988060184 177.69362587273167 Q 217.54044163917112 178.1407197624485 217.1678633977404 178.6623293004515 Q 216.79528515630972 179.18393883845448 216.72076950802358 179.33297013502676 Q 216.64625385973744 179.48200143159903 216.49722256316517 179.70554837645744 Q 216.3481912665929 179.92909532131588 216.27367561830675 180.00361096960202 Q 216.19915997002062 180.07812661788816 216.12464432173448 180.1526422661743 Q 216.05012867344834 180.22715791446043 216.05012867344834 180.30167356274657 Q 216.05012867344834 180.3761892110327 216.12464432173448 180.3761892110327 Q 216.19915997002062 180.3761892110327 216.86980080459585 180.22715791446043 Q 217.54044163917112 180.07812661788816 218.50914506689094 179.92909532131586 Q 219.47784849461078 179.78006402474358 219.99945803261375 179.78006402474358 Q 220.5210675706167 179.78006402474358 221.63880229490883 179.6310327281713 Q 222.75653701920095 179.48200143159903 223.72524044692076 179.4074857833129 Q 224.69394387464058 179.33297013502676 225.06652211607127 179.33297013502676 Q 225.43910035750196 179.33297013502676 226.03522554379109 179.33297013502676 Q 226.63135073008021 179.33297013502676 227.22747591636934 179.33297013502676 Q 227.82360110265847 179.33297013502676 228.12166369580302 179.33297013502676 Q 228.41972628894757 179.33297013502676 229.0158514752367 179.33297013502676 Q 229.61197666152583 179.33297013502676 229.91003925467038 179.33297013502676 Q 230.20810184781493 179.33297013502676 230.28261749610107 179.33297013502676 Q 230.3571331443872 179.33297013502676 230.3571331443872 179.25845448674062 Q 230.3571331443872 179.18393883845448 230.3571331443872 178.88587624530993 Q 230.3571331443872 178.58781365216535 230.28261749610107 178.3642667073069 Q 230.20810184781493 178.1407197624485 229.98455490295652 177.32104763130096 Q 229.7610079580981 176.50137550015342 229.38842971666742 175.60718772071974 Q 229.0158514752367 174.71299994128606 228.8668201786644 174.26590605156923 Q 228.71778888209212 173.8188121618524 228.4942419372337 172.99914003070487 Q 228.2706949923753 172.17946789955732 228.12166369580302 171.50882706498206 Q 227.97263239923075 170.8381862304068 227.8981167509446 170.61463928554838 Q 227.82360110265847 170.39109234068994 227.6745698060862 169.7949671544008 Q 227.5255385095139 169.1988419681117 227.45102286122776 168.67723243010872 Q 227.37650721294162 168.15562289210573 227.37650721294162 167.85756029896118 Q 227.37650721294162 167.55949770581663 227.30199156465548 167.1124038160998 Q 227.22747591636934 166.66530992638295 227.15296026808318 166.36724733323837 Q 227.07844461979704 166.06918474009382 227.07844461979704 165.92015344352154 Q 227.07844461979704 165.77112214694927 227.0039289715109 165.622090850377 Q 226.92941332322476 165.4730595538047 226.7803820266525 165.69660649866313 Q 226.63135073008021 165.92015344352154 226.25877248864953 166.51627862981064 Q 225.8861942472188 167.11240381609977 225.66264730236037 167.4849820575305 Q 225.43910035750196 167.85756029896118 224.917490819499 168.60271678182258 Q 224.39588128149603 169.34787326468398 224.02330304006531 170.24206104411766 Q 223.6507247986346 171.13624882355134 223.4271778537762 171.58334271326817 Q 223.20363090891777 172.03043660298502 222.83105266748709 172.85010873413256 Q 222.45847442605637 173.6697808652801 222.23492748119793 174.4149373481415 Q 222.01138053633952 175.1600938310029 221.93686488805338 175.53267207243363 Q 221.86234923976724 175.90525031386431 221.63880229490883 176.42685985186728 Q 221.41525535005042 176.94846938987027 221.26622405347814 177.24653198301485 Q 221.11719275690587 177.5445945761594 221.04267710861973 177.7681415210178 Q 220.96816146033356 177.99168846587622 220.8191301637613 178.28975105902077 Q 220.670098867189 178.58781365216535 220.670098867189 178.88587624530993 Q 220.670098867189 179.18393883845448 220.670098867189 179.25845448674062 Q 220.670098867189 179.33297013502676 220.59558321890285 179.4074857833129 Q 220.5210675706167 179.48200143159903 220.59558321890285 179.4074857833129 Q 220.670098867189 179.33297013502676 220.8191301637613 179.18393883845448 Q 220.96816146033356 179.0349075418822 221.34073970176428 178.58781365216535 Q 221.71331794319497 178.1407197624485 222.23492748119796 177.5445945761594 Q 222.75653701920095 176.94846938987027 223.0545996123455 176.57589114843955 Q 223.35266220549005 176.20331290700886 223.72524044692074 175.53267207243363 Q 224.09781868835145 174.86203123785836 224.47039692978217 174.1913904032831 Q 224.84297517121286 173.52074956870783 224.99200646778513 173.22268697556325 Q 225.1410377643574 172.9246243824187 225.43910035750196 172.40301484441574 Q 225.73716295064654 171.88140530641274 225.88619424721884 171.58334271326817 Q 226.0352255437911 171.28528012012362 226.10974119207725 171.13624882355134 Q 226.1842568403634 170.98721752697907 226.33328813693566 170.76367058212065 Q 226.48231943350794 170.54012363726224 226.63135073008021 170.39109234068997 Q 226.7803820266525 170.24206104411766 226.7803820266525 170.16754539583152 Q 226.7803820266525 170.0930297475454 226.7803820266525 170.24206104411766 Q 226.7803820266525 170.39109234068994 226.85489767493863 170.61463928554838 Q 226.92941332322476 170.8381862304068 227.15296026808318 171.35979576840975 Q 227.37650721294162 171.88140530641274 227.52553850951392 172.3284991961296 Q 227.6745698060862 172.77559308584642 227.74908545437233 173.07365567899097 Q 227.82360110265847 173.37171827213555 228.04714804751688 174.11687475499696 Q 228.2706949923753 174.86203123785836 228.4942419372337 175.60718772071976 Q 228.71778888209212 176.35234420358114 228.71778888209212 176.72492244501183 Q 228.71778888209212 177.09750068644254 228.8668201786644 177.5445945761594 Q 229.0158514752367 177.99168846587622 229.0158514752367 178.1407197624485 Q 229.0158514752367 178.2897510590208 229.0158514752367 178.36426670730694 Q 229.0158514752367 178.43878235559308 229.0158514752367 178.36426670730694 Q 229.0158514752367 178.2897510590208 228.8668201786644 178.21523541073464 Q 228.71778888209212 178.1407197624485 228.41972628894757 177.84265716930395 Q 228.12166369580302 177.5445945761594 227.74908545437233 177.09750068644257 Q 227.37650721294162 176.65040679672572 227.15296026808318 176.42685985186728 Q 226.92941332322476 176.20331290700886 226.63135073008021 175.83073466557818 Q 226.33328813693566 175.45815642414746 226.10974119207725 175.0110625344306 Q 225.8861942472188 174.56396864471378 225.81167859893267 174.4149373481415 Q 225.73716295064654 174.26590605156923 225.58813165407423 173.96784345842468 Q 225.43910035750196 173.6697808652801 225.36458470921582 173.4462339204217 Q 225.29006906092968 173.22268697556328 225.21555341264354 173.22268697556328 Q 225.1410377643574 173.22268697556328 225.1410377643574 173.1481713272771 Q 225.1410377643574 173.07365567899097 225.06652211607127 173.07365567899097 Q 224.99200646778513 173.07365567899097 224.99200646778513 173.1481713272771 Q 224.99200646778513 173.22268697556328 224.917490819499 173.595265216994 Q 224.84297517121286 173.96784345842468 224.84297517121286 174.26590605156923 Q 224.84297517121286 174.56396864471378 224.84297517121286 175.23460947928905 Q 224.84297517121286 175.90525031386431 224.917490819499 176.65040679672572 Q 224.99200646778513 177.39556327958712 225.1410377643574 177.84265716930395 Q 225.29006906092968 178.2897510590208 225.58813165407423 179.25845448674062 Q 225.8861942472188 180.22715791446043 226.1842568403634 181.19586134218025 Q 226.48231943350794 182.1645647699001 226.63135073008021 182.53714301133078 Q 226.7803820266525 182.90972125276147 226.85489767493863 183.35681514247833 Q 226.92941332322476 183.80390903219518 226.92941332322476 183.87842468048132 Q 226.92941332322476 183.95294032876745 227.0039289715109 183.87842468048132 Q 227.07844461979704 183.80390903219518 227.30199156465545 183.80390903219518 Q 227.5255385095139 183.80390903219518 228.19617934408916 183.80390903219518 Q 228.8668201786644 183.80390903219518 229.7610079580981 183.95294032876745 Q 230.65519573753178 184.10197162533973 231.17680527553478 184.251002921912 Q 231.69841481353774 184.40003421848428 232.44357129639914 184.47454986677042 Q 233.18872777926055 184.54906551505655 233.56130602069123 184.54906551505655 Q 233.93388426212195 184.54906551505655 234.0083999104081 184.54906551505655 Q 234.08291555869422 184.54906551505655 234.15743120698036 184.54906551505655 Q 234.2319468552665 184.54906551505655 233.93388426212192 184.47454986677042 Q 233.63582166897737 184.40003421848428 233.18872777926055 184.40003421848428 Q 232.74163388954372 184.40003421848428 232.5180869446853 184.40003421848428 Q 232.29453999982687 184.40003421848428 231.84744611011 184.40003421848428 Q 231.4003522203932 184.40003421848428 231.2513209238209 184.32551857019814 Q 231.10228962724864 184.251002921912 230.87874268239023 184.251002921912 L 230.6511957375318 184.251002921912" stroke-linecap="round"/>
  </g>
  <g transform="matrix(2.5058049458 0 0 2.619154441 202.2913998742 170.3208296164)" id="7ooWc1sxxURsashtc-G3T">
    <path style="stroke: rgb(31,40,51); stroke-width: 4; stroke-dasharray: none; stroke-linecap: butt; stroke-dashoffset: 0; stroke-linejoin: miter; stroke-miterlimit: 4; fill: rgb(102,252,241); fill-rule: nonzero; opacity: 1;" transform=" translate(0, 0)" d="M -43.77104 62.85073 C -37.5982 -34.2312 43.77105 -62.85073 43.77105 -62.85073" stroke-linecap="round"/>
  </g>
  <g transform="matrix(2.1830284158 0 0 2.2856712939 293.290178828 115.9867867403)" id="l2GC0jqJxWHj8Icz67Op4">
    <path style="stroke: rgb(31,40,51); stroke-width: 4; stroke-dasharray: none; stroke-linecap: butt; stroke-dashoffset: 0; stroke-linejoin: miter; stroke-miterlimit: 4; fill: rgb(255,255,255); fill-opacity: 0; fill-rule: nonzero; opacity: 1;" transform=" translate(0, 0)" d="M 8.85397 48.54097 C -30.988899999999997 -17.1156 8.85397 -48.54096 8.85397 -48.54096" stroke-linecap="round"/>
  </g>
  <g transform="matrix(2.2347998113 0 0 2.2347998113 250 336.2461741744)" id="R0913L_q-y7IfKscQh-w7">
    <path style="stroke: rgb(31,40,51); stroke-width: 4; stroke-dasharray: none; stroke-linecap: butt; stroke-dashoffset: 0; stroke-linejoin: miter; stroke-miterlimit: 4; fill: rgb(102,252,241); fill-rule: nonzero; opacity: 1;" transform=" translate(0, 0)" d="M 0 -70.98766 C 39.18519 -70.98766 70.98766 -39.185190000000006 70.98766 0 C 70.98766 39.18519 39.185190000000006 70.98766 0 70.98766 C -39.18519 70.98766 -70.98766 39.185190000000006 -70.98766 0 C -70.98766 -39.18519 -39.185190000000006 -70.98766 0 -70.98766 z" stroke-linecap="round"/>
  </g>
  <g transform="matrix(2.1830284158 0 0 2.1830284158 250 336.2461741744)" id="CZivF9kJNSi9eq6g1yVmN">
    <path style="stroke: rgb(31, 40, 51); stroke-width: 4; stroke-dasharray: none; stroke-linecap: butt; stroke-dashoffset: 0; stroke-linejoin: miter; stroke-miterlimit: 4; fill-rule: nonzero; opacity: 1; fill: rgb(31, 40, 51);" transform=" translate(0, 0)" d="M 0 -47.13805 C 26.0202 -47.13805 47.13805 -26.02021 47.13805 0 C 47.13805 26.0202 26.02021 47.13805 0 47.13805 C -26.0202 47.13805 -47.13805 26.02021 -47.13805 0 C -47.13805 -26.0202 -26.02021 -47.13805 0 -47.13805 z" stroke-linecap="round"/>
  </g>
</svg>